<?xml version="1.0" encoding="UTF-8"?>
<svg width="262px" height="68px" viewBox="0 0 262 68" version="1.1" xmlns="http://www.w3.org/2000/svg" xmlns:xlink="http://www.w3.org/1999/xlink">
    <!-- Generator: Sketch 41 (35326) - http://www.bohemiancoding.com/sketch -->
    <title>Malert_brand</title>
    <desc>Created with Sketch.</desc>
    <defs>
        <linearGradient x1="50%" y1="100%" x2="50%" y2="-2.22044605e-14%" id="linearGradient-1">
            <stop stop-color="#FF8628" offset="0%"></stop>
            <stop stop-color="#FFD93D" offset="100%"></stop>
        </linearGradient>
    </defs>
    <g id="Page-1" stroke="none" stroke-width="1" fill="none" fill-rule="evenodd">
        <g id="Artboard" transform="translate(-67.000000, -262.000000)">
            <g id="Malert_brand" transform="translate(67.000000, 262.000000)">
                <g id="Logo">
                    <path d="M78.78125,45 C78.5729156,44.5833313 78.4036465,43.8411512 78.2734375,42.7734375 C76.5937416,44.5182379 74.5885533,45.390625 72.2578125,45.390625 C70.1744688,45.390625 68.4655015,44.8014382 67.1308594,43.6230469 C65.7962173,42.4446556 65.1289062,40.9505299 65.1289062,39.140625 C65.1289062,36.9400932 65.9654864,35.2311259 67.6386719,34.0136719 C69.3118573,32.7962179 71.6653494,32.1875 74.6992188,32.1875 L78.2148438,32.1875 L78.2148438,30.5273438 C78.2148438,29.2643166 77.8372434,28.2584673 77.0820312,27.5097656 C76.3268191,26.761064 75.213549,26.3867188 73.7421875,26.3867188 C72.4531186,26.3867188 71.3724002,26.7122363 70.5,27.3632812 C69.6275998,28.0143262 69.1914062,28.8020787 69.1914062,29.7265625 L65.5585938,29.7265625 C65.5585938,28.6718697 65.932939,27.6529997 66.6816406,26.6699219 C67.4303423,25.686844 68.4459571,24.908857 69.7285156,24.3359375 C71.0110741,23.763018 72.4205652,23.4765625 73.9570312,23.4765625 C76.3919393,23.4765625 78.2994723,24.0852804 79.6796875,25.3027344 C81.0599027,26.5201884 81.7760414,28.1966039 81.828125,30.3320312 L81.828125,40.0585938 C81.828125,41.9987076 82.0755184,43.5416609 82.5703125,44.6875 L82.5703125,45 L78.78125,45 Z M72.7851562,42.2460938 C73.9179744,42.2460938 74.9921824,41.9531279 76.0078125,41.3671875 C77.0234426,40.7812471 77.7591123,40.0195359 78.2148438,39.0820312 L78.2148438,34.7460938 L75.3828125,34.7460938 C70.955707,34.7460938 68.7421875,36.0416537 68.7421875,38.6328125 C68.7421875,39.7656307 69.1197879,40.6510385 69.875,41.2890625 C70.6302121,41.9270865 71.6002545,42.2460938 72.7851562,42.2460938 Z M89.4179688,45 L85.8046875,45 L85.8046875,15 L89.4179688,15 L89.4179688,45 Z M101.96875,45.390625 C99.1041523,45.390625 96.7734465,44.4498792 94.9765625,42.5683594 C93.1796785,40.6868396 92.28125,38.1705887 92.28125,35.0195312 L92.28125,34.3554688 C92.28125,32.2591041 92.6816366,30.387378 93.4824219,28.7402344 C94.2832071,27.0930907 95.4029876,25.8040411 96.8417969,24.8730469 C98.2806062,23.9420526 99.8398354,23.4765625 101.519531,23.4765625 C104.266941,23.4765625 106.402336,24.3815014 107.925781,26.1914062 C109.449226,28.0013111 110.210938,30.5924311 110.210938,33.9648438 L110.210938,35.46875 L95.8945312,35.46875 C95.9466148,37.5520937 96.5553327,39.2350196 97.7207031,40.5175781 C98.8860735,41.8001366 100.367179,42.4414062 102.164062,42.4414062 C103.440111,42.4414062 104.520829,42.1809922 105.40625,41.6601562 C106.291671,41.1393203 107.066403,40.449223 107.730469,39.5898438 L109.9375,41.3085938 C108.166658,44.0299615 105.510434,45.390625 101.96875,45.390625 Z M101.519531,26.4453125 C100.061191,26.4453125 98.8372445,26.9759062 97.8476562,28.0371094 C96.858068,29.0983126 96.2460949,30.5859279 96.0117188,32.5 L106.597656,32.5 L106.597656,32.2265625 C106.493489,30.3906158 105.998702,28.968104 105.113281,27.9589844 C104.22786,26.9498647 103.029955,26.4453125 101.519531,26.4453125 Z M122.605469,27.109375 C122.058591,27.0182287 121.466149,26.9726562 120.828125,26.9726562 C118.458321,26.9726562 116.850265,27.9817607 116.003906,30 L116.003906,45 L112.390625,45 L112.390625,23.8671875 L115.90625,23.8671875 L115.964844,26.3085938 C117.149746,24.4205635 118.829416,23.4765625 121.003906,23.4765625 C121.707035,23.4765625 122.240884,23.5677074 122.605469,23.75 L122.605469,27.109375 Z M129.804688,18.75 L129.804688,23.8671875 L133.75,23.8671875 L133.75,26.6601562 L129.804688,26.6601562 L129.804688,39.765625 C129.804688,40.6119834 129.980467,41.2467427 130.332031,41.6699219 C130.683596,42.0931011 131.282548,42.3046875 132.128906,42.3046875 C132.545575,42.3046875 133.118486,42.2265633 133.847656,42.0703125 L133.847656,45 C132.897131,45.260418 131.972661,45.390625 131.074219,45.390625 C129.459627,45.390625 128.242192,44.9023486 127.421875,43.9257812 C126.601558,42.9492139 126.191406,41.562509 126.191406,39.765625 L126.191406,26.6601562 L122.34375,26.6601562 L122.34375,23.8671875 L126.191406,23.8671875 L126.191406,18.75 L129.804688,18.75 Z" id="alert" fill-opacity="0.87" fill="#000000"></path>
                    <circle id="Oval" fill="url(#linearGradient-1)" cx="34" cy="34" r="34"></circle>
                    <path d="M35.5726547,24.390625 L35.7093735,26.5976562 C37.1937559,24.8658768 39.2249856,24 41.8031235,24 C44.6286584,24 46.5622328,25.0807184 47.6039047,27.2421875 C49.1403707,25.0807184 51.3018075,24 54.0882797,24 C56.4190205,24 58.1540292,24.6445248 59.2933578,25.9335938 C60.4326865,27.2226627 61.0153629,29.1236854 61.0414047,31.6367188 L61.0414047,45.5234375 L56.295311,45.5234375 L56.295311,31.7734375 C56.295311,30.432285 56.0023452,29.4492219 55.4164047,28.8242188 C54.8304643,28.1992156 53.8604219,27.8867188 52.5062485,27.8867188 C51.4255139,27.8867188 50.5433613,28.1764294 49.8597641,28.7558594 C49.1761669,29.3352894 48.6976561,30.0937453 48.4242172,31.03125 L48.4437485,45.5234375 L43.6976547,45.5234375 L43.6976547,31.6171875 C43.6325502,29.1301959 42.3630317,27.8867188 39.889061,27.8867188 C37.9880098,27.8867188 36.640367,28.6614506 35.8460922,30.2109375 L35.8460922,45.5234375 L31.0999985,45.5234375 L31.0999985,24.390625 L35.5726547,24.390625 Z M33.5,54 C34.8807119,54 36,52.8807119 36,51.5 C36,50.1192881 34.8807119,49 33.5,49 C32.1192881,49 31,50.1192881 31,51.5 C31,52.8807119 32.1192881,54 33.5,54 Z" id="Combined-Shape" fill="#FFFFFF"></path>
                </g>
                <path d="M69.3310547,63 L68.0664062,63 L68.0664062,55.6035156 L69.3310547,55.6035156 L69.3310547,63 Z M67.9638672,53.6416016 C67.9638672,53.4365224 68.0265293,53.2633471 68.1518555,53.1220703 C68.2771816,52.9807936 68.4628894,52.9101562 68.7089844,52.9101562 C68.9550794,52.9101562 69.1419264,52.9807936 69.2695312,53.1220703 C69.3971361,53.2633471 69.4609375,53.4365224 69.4609375,53.6416016 C69.4609375,53.8466807 69.3971361,54.0175774 69.2695312,54.1542969 C69.1419264,54.2910163 68.9550794,54.359375 68.7089844,54.359375 C68.4628894,54.359375 68.2771816,54.2910163 68.1518555,54.1542969 C68.0265293,54.0175774 67.9638672,53.8466807 67.9638672,53.6416016 Z M79.2089844,58.3447266 C79.2089844,59.3199919 79.0449235,60.1710576 78.7167969,60.8979492 C78.3886702,61.6248409 77.9238311,62.1796856 77.3222656,62.5625 C76.7207001,62.9453144 76.0188842,63.1367188 75.2167969,63.1367188 C74.4329388,63.1367188 73.7379588,62.9441751 73.1318359,62.559082 C72.5257131,62.173989 72.0551775,61.6248408 71.7202148,60.9116211 C71.3852522,60.1984014 71.2132162,59.3724005 71.2041016,58.4335938 L71.2041016,57.7158203 C71.2041016,56.7587843 71.370441,55.9134151 71.703125,55.1796875 C72.035809,54.4459599 72.5063446,53.8842793 73.1147461,53.4946289 C73.7231476,53.1049785 74.4192669,52.9101562 75.203125,52.9101562 C76.000655,52.9101562 76.7036102,53.1026999 77.3120117,53.487793 C77.9204132,53.872886 78.3886702,54.4311487 78.7167969,55.1625977 C79.0449235,55.8940466 79.2089844,56.7451123 79.2089844,57.7158203 L79.2089844,58.3447266 Z M77.9033203,57.7021484 C77.9033203,56.521804 77.6663435,55.6160513 77.1923828,54.9848633 C76.7184221,54.3536752 76.0553428,54.0380859 75.203125,54.0380859 C74.3736938,54.0380859 73.7208683,54.3536752 73.2446289,54.9848633 C72.7683895,55.6160513 72.5234376,56.4921819 72.5097656,57.6132812 L72.5097656,58.3447266 C72.5097656,59.4886125 72.7501604,60.3875293 73.230957,61.0415039 C73.7117537,61.6954785 74.3736937,62.0224609 75.2167969,62.0224609 C76.0644574,62.0224609 76.7207008,61.7137075 77.1855469,61.0961914 C77.6503929,60.4786753 77.8896484,59.5934302 77.9033203,58.4404297 L77.9033203,57.7021484 Z M84.1103516,58.5634766 C82.9846949,58.2399072 82.1655299,57.8422875 81.652832,57.3706055 C81.1401342,56.8989234 80.8837891,56.3167352 80.8837891,55.6240234 C80.8837891,54.8401654 81.1970997,54.1918971 81.8237305,53.6791992 C82.4503612,53.1665013 83.2649689,52.9101562 84.2675781,52.9101562 C84.9511753,52.9101562 85.560707,53.0423164 86.0961914,53.3066406 C86.6316759,53.5709649 87.0463852,53.9355446 87.340332,54.4003906 C87.6342788,54.8652367 87.78125,55.3733696 87.78125,55.9248047 L86.4619141,55.9248047 C86.4619141,55.3232392 86.2705097,54.8504249 85.8876953,54.5063477 C85.5048809,54.1622704 84.9648472,53.9902344 84.2675781,53.9902344 C83.6204395,53.9902344 83.1157245,54.1326483 82.753418,54.4174805 C82.3911115,54.7023126 82.2099609,55.0976537 82.2099609,55.6035156 C82.2099609,56.0091166 82.381997,56.3520494 82.7260742,56.6323242 C83.0701515,56.9125991 83.6557576,57.1689442 84.4829102,57.4013672 C85.3100627,57.6337902 85.9571917,57.8901353 86.4243164,58.1704102 C86.8914411,58.450685 87.2377918,58.7776674 87.4633789,59.1513672 C87.688966,59.525067 87.8017578,59.9648412 87.8017578,60.4707031 C87.8017578,61.2773478 87.4873078,61.9233374 86.8583984,62.4086914 C86.229489,62.8940454 85.3886771,63.1367188 84.3359375,63.1367188 C83.6523403,63.1367188 83.0143259,63.0056979 82.421875,62.7436523 C81.8294241,62.4816068 81.3725602,62.1227236 81.0512695,61.6669922 C80.7299789,61.2112607 80.5693359,60.6940133 80.5693359,60.1152344 L81.8886719,60.1152344 C81.8886719,60.7167999 82.1108376,61.1918928 82.5551758,61.5405273 C82.9995139,61.8891619 83.5930952,62.0634766 84.3359375,62.0634766 C85.0286493,62.0634766 85.5595685,61.9222019 85.9287109,61.6396484 C86.2978534,61.3570949 86.4824219,60.9720076 86.4824219,60.484375 C86.4824219,59.9967424 86.3115251,59.6196302 85.9697266,59.3530273 C85.627928,59.0864244 85.0081425,58.8232435 84.1103516,58.5634766 Z M97.3173828,63 C97.2444658,62.8541659 97.1852216,62.5944029 97.1396484,62.2207031 C96.5517549,62.8313833 95.849939,63.1367188 95.0341797,63.1367188 C94.3050094,63.1367188 93.7068708,62.9305034 93.2397461,62.5180664 C92.7726214,62.1056294 92.5390625,61.5826855 92.5390625,60.9492188 C92.5390625,60.1790326 92.8318656,59.5808941 93.4174805,59.1547852 C94.0030954,58.7286763 94.8268176,58.515625 95.8886719,58.515625 L97.1191406,58.515625 L97.1191406,57.9345703 C97.1191406,57.4925108 96.9869805,57.1404635 96.7226562,56.878418 C96.458332,56.6163724 96.0686875,56.4853516 95.5537109,56.4853516 C95.1025368,56.4853516 94.7242854,56.5992827 94.4189453,56.8271484 C94.1136052,57.0550142 93.9609375,57.3307275 93.9609375,57.6542969 L92.6894531,57.6542969 C92.6894531,57.2851544 92.820474,56.9285499 93.0825195,56.5844727 C93.3445651,56.2403954 93.7000303,55.9681 94.1489258,55.7675781 C94.5978213,55.5670563 95.0911431,55.4667969 95.6289062,55.4667969 C96.4811241,55.4667969 97.1487606,55.6798481 97.6318359,56.105957 C98.1149113,56.5320659 98.3655598,57.1188114 98.3837891,57.8662109 L98.3837891,61.2705078 C98.3837891,61.9495477 98.4703767,62.4895813 98.6435547,62.890625 L98.6435547,63 L97.3173828,63 Z M95.21875,62.0361328 C95.6152364,62.0361328 95.9912092,61.9335948 96.3466797,61.7285156 C96.7021502,61.5234365 96.9596346,61.2568376 97.1191406,60.9287109 L97.1191406,59.4111328 L96.1279297,59.4111328 C94.5784428,59.4111328 93.8037109,59.8645788 93.8037109,60.7714844 C93.8037109,61.1679707 93.9358711,61.4778635 94.2001953,61.7011719 C94.4645196,61.9244803 94.8040344,62.0361328 95.21875,62.0361328 Z M101.740234,63 L100.475586,63 L100.475586,52.5 L101.740234,52.5 L101.740234,63 Z M106.833008,63.1367188 C105.830399,63.1367188 105.014652,62.8074577 104.385742,62.1489258 C103.756833,61.4903938 103.442383,60.609706 103.442383,59.5068359 L103.442383,59.2744141 C103.442383,58.5406864 103.582518,57.8855823 103.862793,57.309082 C104.143068,56.7325818 104.534991,56.2814144 105.038574,55.9555664 C105.542157,55.6297184 106.087888,55.4667969 106.675781,55.4667969 C107.637375,55.4667969 108.384763,55.7835255 108.917969,56.4169922 C109.451175,57.0504589 109.717773,57.9573509 109.717773,59.1376953 L109.717773,59.6640625 L104.707031,59.6640625 C104.725261,60.3932328 104.938312,60.9822569 105.346191,61.4311523 C105.754071,61.8800478 106.272458,62.1044922 106.901367,62.1044922 C107.347984,62.1044922 107.726235,62.0133473 108.036133,61.8310547 C108.34603,61.6487621 108.617186,61.4072281 108.849609,61.1064453 L109.62207,61.7080078 C109.002276,62.6604865 108.072597,63.1367188 106.833008,63.1367188 Z M106.675781,56.5058594 C106.165362,56.5058594 105.736981,56.6915672 105.390625,57.0629883 C105.044269,57.4344094 104.830079,57.9550748 104.748047,58.625 L108.453125,58.625 L108.453125,58.5292969 C108.416666,57.8867155 108.243491,57.3888364 107.933594,57.0356445 C107.623696,56.6824527 107.20443,56.5058594 106.675781,56.5058594 Z M114.755859,56.7382812 C114.564452,56.70638 114.357097,56.6904297 114.133789,56.6904297 C113.304358,56.6904297 112.741538,57.0436163 112.445312,57.75 L112.445312,63 L111.180664,63 L111.180664,55.6035156 L112.411133,55.6035156 L112.431641,56.4580078 C112.846356,55.7971972 113.434241,55.4667969 114.195312,55.4667969 C114.441407,55.4667969 114.628255,55.4986976 114.755859,55.5625 L114.755859,56.7382812 Z M117.975586,53.8125 L117.975586,55.6035156 L119.356445,55.6035156 L119.356445,56.5810547 L117.975586,56.5810547 L117.975586,61.1679688 C117.975586,61.4641942 118.037109,61.6863599 118.160156,61.8344727 C118.283204,61.9825854 118.492837,62.0566406 118.789062,62.0566406 C118.934897,62.0566406 119.135415,62.0292971 119.390625,61.9746094 L119.390625,63 C119.057941,63.0911463 118.734377,63.1367188 118.419922,63.1367188 C117.854815,63.1367188 117.428712,62.965822 117.141602,62.6240234 C116.854491,62.2822249 116.710938,61.7968781 116.710938,61.1679688 L116.710938,56.5810547 L115.364258,56.5810547 L115.364258,55.6035156 L116.710938,55.6035156 L116.710938,53.8125 L117.975586,53.8125 Z M125.495117,55.6035156 L125.536133,56.5332031 C126.10124,55.8222621 126.839514,55.4667969 127.750977,55.4667969 C129.314135,55.4667969 130.102539,56.348624 130.116211,58.1123047 L130.116211,63 L128.851562,63 L128.851562,58.1054688 C128.847005,57.572263 128.725099,57.1780612 128.48584,56.9228516 C128.246581,56.667642 127.874026,56.5400391 127.368164,56.5400391 C126.958006,56.5400391 126.597983,56.649413 126.288086,56.8681641 C125.978189,57.0869152 125.736655,57.3740217 125.563477,57.7294922 L125.563477,63 L124.298828,63 L124.298828,55.6035156 L125.495117,55.6035156 Z M131.688477,59.2333984 C131.688477,58.5087854 131.830891,57.8570992 132.115723,57.2783203 C132.400555,56.6995414 132.797035,56.2529313 133.305176,55.9384766 C133.813316,55.6240219 134.393226,55.4667969 135.044922,55.4667969 C136.052088,55.4667969 136.866696,55.8154262 137.48877,56.5126953 C138.110843,57.2099644 138.421875,58.137364 138.421875,59.2949219 L138.421875,59.3837891 C138.421875,60.1038447 138.284018,60.7498344 138.008301,61.3217773 C137.732583,61.8937203 137.338381,62.3391911 136.825684,62.6582031 C136.312986,62.9772151 135.723962,63.1367188 135.058594,63.1367188 C134.055985,63.1367188 133.243655,62.7880894 132.621582,62.0908203 C131.999509,61.3935512 131.688477,60.4707089 131.688477,59.3222656 L131.688477,59.2333984 Z M132.959961,59.3837891 C132.959961,60.2041057 133.150226,60.8626277 133.530762,61.359375 C133.911297,61.8561223 134.42057,62.1044922 135.058594,62.1044922 C135.701175,62.1044922 136.211587,61.8527043 136.589844,61.3491211 C136.968101,60.8455378 137.157227,60.140304 137.157227,59.2333984 C137.157227,58.4221965 136.964683,57.7648137 136.57959,57.2612305 C136.194497,56.7576472 135.682946,56.5058594 135.044922,56.5058594 C134.42057,56.5058594 133.916994,56.7542293 133.53418,57.2509766 C133.151365,57.7477238 132.959961,58.4586542 132.959961,59.3837891 Z M146.556641,61.2568359 L147.978516,55.6035156 L149.243164,55.6035156 L147.089844,63 L146.064453,63 L144.266602,57.3945312 L142.516602,63 L141.491211,63 L139.344727,55.6035156 L140.602539,55.6035156 L142.058594,61.140625 L143.78125,55.6035156 L144.799805,55.6035156 L146.556641,61.2568359 Z M157.063477,63.1367188 C156.060867,63.1367188 155.24512,62.8074577 154.616211,62.1489258 C153.987302,61.4903938 153.672852,60.609706 153.672852,59.5068359 L153.672852,59.2744141 C153.672852,58.5406864 153.812987,57.8855823 154.093262,57.309082 C154.373537,56.7325818 154.76546,56.2814144 155.269043,55.9555664 C155.772626,55.6297184 156.318356,55.4667969 156.90625,55.4667969 C157.867843,55.4667969 158.615232,55.7835255 159.148438,56.4169922 C159.681643,57.0504589 159.948242,57.9573509 159.948242,59.1376953 L159.948242,59.6640625 L154.9375,59.6640625 C154.955729,60.3932328 155.168781,60.9822569 155.57666,61.4311523 C155.98454,61.8800478 156.502927,62.1044922 157.131836,62.1044922 C157.578453,62.1044922 157.956704,62.0133473 158.266602,61.8310547 C158.576499,61.6487621 158.847655,61.4072281 159.080078,61.1064453 L159.852539,61.7080078 C159.232744,62.6604865 158.303066,63.1367188 157.063477,63.1367188 Z M156.90625,56.5058594 C156.395831,56.5058594 155.96745,56.6915672 155.621094,57.0629883 C155.274738,57.4344094 155.060547,57.9550748 154.978516,58.625 L158.683594,58.625 L158.683594,58.5292969 C158.647135,57.8867155 158.47396,57.3888364 158.164062,57.0356445 C157.854165,56.6824527 157.434898,56.5058594 156.90625,56.5058594 Z M165.977539,63 C165.904622,62.8541659 165.845378,62.5944029 165.799805,62.2207031 C165.211911,62.8313833 164.510095,63.1367188 163.694336,63.1367188 C162.965166,63.1367188 162.367027,62.9305034 161.899902,62.5180664 C161.432778,62.1056294 161.199219,61.5826855 161.199219,60.9492188 C161.199219,60.1790326 161.492022,59.5808941 162.077637,59.1547852 C162.663252,58.7286763 163.486974,58.515625 164.548828,58.515625 L165.779297,58.515625 L165.779297,57.9345703 C165.779297,57.4925108 165.647137,57.1404635 165.382812,56.878418 C165.118488,56.6163724 164.728844,56.4853516 164.213867,56.4853516 C163.762693,56.4853516 163.384442,56.5992827 163.079102,56.8271484 C162.773761,57.0550142 162.621094,57.3307275 162.621094,57.6542969 L161.349609,57.6542969 C161.349609,57.2851544 161.48063,56.9285499 161.742676,56.5844727 C162.004721,56.2403954 162.360187,55.9681 162.809082,55.7675781 C163.257978,55.5670563 163.751299,55.4667969 164.289062,55.4667969 C165.14128,55.4667969 165.808917,55.6798481 166.291992,56.105957 C166.775068,56.5320659 167.025716,57.1188114 167.043945,57.8662109 L167.043945,61.2705078 C167.043945,61.9495477 167.130533,62.4895813 167.303711,62.890625 L167.303711,63 L165.977539,63 Z M163.878906,62.0361328 C164.275393,62.0361328 164.651365,61.9335948 165.006836,61.7285156 C165.362306,61.5234365 165.619791,61.2568376 165.779297,60.9287109 L165.779297,59.4111328 L164.788086,59.4111328 C163.238599,59.4111328 162.463867,59.8645788 162.463867,60.7714844 C162.463867,61.1679707 162.596027,61.4778635 162.860352,61.7011719 C163.124676,61.9244803 163.464191,62.0361328 163.878906,62.0361328 Z M173.333008,61.0380859 C173.333008,60.6962874 173.204266,60.4308278 172.946777,60.2416992 C172.689289,60.0525707 172.2404,59.8896491 171.600098,59.7529297 C170.959795,59.6162103 170.451662,59.4521494 170.075684,59.2607422 C169.699705,59.069335 169.421713,58.8414727 169.241699,58.5771484 C169.061685,58.3128242 168.97168,57.9983742 168.97168,57.6337891 C168.97168,57.0276662 169.228025,56.5149761 169.740723,56.0957031 C170.253421,55.6764302 170.908525,55.4667969 171.706055,55.4667969 C172.544601,55.4667969 173.22477,55.6832661 173.746582,56.1162109 C174.268395,56.5491558 174.529297,57.1028612 174.529297,57.7773438 L173.257812,57.7773438 C173.257812,57.4309879 173.110841,57.1324882 172.816895,56.8818359 C172.522948,56.6311836 172.152672,56.5058594 171.706055,56.5058594 C171.245766,56.5058594 170.885743,56.6061188 170.625977,56.8066406 C170.36621,57.0071625 170.236328,57.2692041 170.236328,57.5927734 C170.236328,57.8981135 170.357095,58.1282544 170.598633,58.2832031 C170.84017,58.4381518 171.276527,58.5862623 171.907715,58.7275391 C172.538903,58.8688158 173.050454,59.0374339 173.442383,59.2333984 C173.834312,59.429363 174.124836,59.6652004 174.313965,59.940918 C174.503093,60.2166355 174.597656,60.5527324 174.597656,60.9492188 C174.597656,61.6100293 174.333336,62.1398092 173.804688,62.5385742 C173.276039,62.9373392 172.590173,63.1367188 171.74707,63.1367188 C171.154619,63.1367188 170.630536,63.0319021 170.174805,62.8222656 C169.719073,62.6126292 169.362469,62.3198261 169.10498,61.9438477 C168.847492,61.5678692 168.71875,61.161135 168.71875,60.7236328 L169.983398,60.7236328 C170.006185,61.1474631 170.175942,61.48356 170.492676,61.7319336 C170.809409,61.9803072 171.227536,62.1044922 171.74707,62.1044922 C172.225588,62.1044922 172.609536,62.0076507 172.898926,61.8139648 C173.188315,61.620279 173.333008,61.3616553 173.333008,61.0380859 Z M178.665039,61.1474609 L180.387695,55.6035156 L181.741211,55.6035156 L178.767578,64.1416016 C178.307289,65.3720765 177.575851,65.9873047 176.573242,65.9873047 L176.333984,65.9667969 L175.862305,65.8779297 L175.862305,64.8525391 L176.204102,64.8798828 C176.632489,64.8798828 176.966307,64.7932951 177.205566,64.6201172 C177.444825,64.4469392 177.641926,64.1302106 177.796875,63.6699219 L178.077148,62.9179688 L175.438477,55.6035156 L176.819336,55.6035156 L178.665039,61.1474609 Z M190.901367,63 C190.82845,62.8541659 190.769206,62.5944029 190.723633,62.2207031 C190.135739,62.8313833 189.433923,63.1367188 188.618164,63.1367188 C187.888994,63.1367188 187.290855,62.9305034 186.82373,62.5180664 C186.356606,62.1056294 186.123047,61.5826855 186.123047,60.9492188 C186.123047,60.1790326 186.41585,59.5808941 187.001465,59.1547852 C187.58708,58.7286763 188.410802,58.515625 189.472656,58.515625 L190.703125,58.515625 L190.703125,57.9345703 C190.703125,57.4925108 190.570965,57.1404635 190.306641,56.878418 C190.042316,56.6163724 189.652672,56.4853516 189.137695,56.4853516 C188.686521,56.4853516 188.30827,56.5992827 188.00293,56.8271484 C187.69759,57.0550142 187.544922,57.3307275 187.544922,57.6542969 L186.273438,57.6542969 C186.273438,57.2851544 186.404458,56.9285499 186.666504,56.5844727 C186.928549,56.2403954 187.284015,55.9681 187.73291,55.7675781 C188.181806,55.5670563 188.675128,55.4667969 189.212891,55.4667969 C190.065108,55.4667969 190.732745,55.6798481 191.21582,56.105957 C191.698896,56.5320659 191.949544,57.1188114 191.967773,57.8662109 L191.967773,61.2705078 C191.967773,61.9495477 192.054361,62.4895813 192.227539,62.890625 L192.227539,63 L190.901367,63 Z M188.802734,62.0361328 C189.199221,62.0361328 189.575194,61.9335948 189.930664,61.7285156 C190.286135,61.5234365 190.543619,61.2568376 190.703125,60.9287109 L190.703125,59.4111328 L189.711914,59.4111328 C188.162427,59.4111328 187.387695,59.8645788 187.387695,60.7714844 C187.387695,61.1679707 187.519855,61.4778635 187.78418,61.7011719 C188.048504,61.9244803 188.388019,62.0361328 188.802734,62.0361328 Z M195.146484,55.6035156 L195.1875,56.5332031 C195.752607,55.8222621 196.490881,55.4667969 197.402344,55.4667969 C198.965503,55.4667969 199.753906,56.348624 199.767578,58.1123047 L199.767578,63 L198.50293,63 L198.50293,58.1054688 C198.498372,57.572263 198.376466,57.1780612 198.137207,56.9228516 C197.897948,56.667642 197.525393,56.5400391 197.019531,56.5400391 C196.609373,56.5400391 196.249351,56.649413 195.939453,56.8681641 C195.629556,57.0869152 195.388022,57.3740217 195.214844,57.7294922 L195.214844,63 L193.950195,63 L193.950195,55.6035156 L195.146484,55.6035156 Z M201.367188,59.2402344 C201.367188,58.1054631 201.636065,57.1928745 202.173828,56.5024414 C202.711591,55.8120083 203.415686,55.4667969 204.286133,55.4667969 C205.152023,55.4667969 205.837888,55.7630179 206.34375,56.3554688 L206.34375,52.5 L207.608398,52.5 L207.608398,63 L206.446289,63 L206.384766,62.2070312 C205.878904,62.826826 205.174809,63.1367188 204.272461,63.1367188 C203.415686,63.1367188 202.717288,62.7858108 202.177246,62.0839844 C201.637204,61.3821579 201.367188,60.4661515 201.367188,59.3359375 L201.367188,59.2402344 Z M202.631836,59.3837891 C202.631836,60.2223349 202.805011,60.8785784 203.151367,61.3525391 C203.497723,61.8264998 203.976234,62.0634766 204.586914,62.0634766 C205.389001,62.0634766 205.974608,61.7034541 206.34375,60.9833984 L206.34375,57.5859375 C205.965493,56.8886684 205.384444,56.5400391 204.600586,56.5400391 C203.980791,56.5400391 203.497723,56.7792945 203.151367,57.2578125 C202.805011,57.7363305 202.631836,58.4449823 202.631836,59.3837891 Z M216.00293,62.1044922 C216.454104,62.1044922 216.848306,61.9677748 217.185547,61.6943359 C217.522788,61.4208971 217.709635,61.0791036 217.746094,60.6689453 L218.942383,60.6689453 C218.919596,61.0927756 218.773764,61.4960918 218.504883,61.8789062 C218.236001,62.2617207 217.877118,62.5670562 217.428223,62.7949219 C216.979327,63.0227876 216.504234,63.1367188 216.00293,63.1367188 C214.995763,63.1367188 214.194827,62.8006219 213.600098,62.128418 C213.005368,61.4562141 212.708008,60.5367897 212.708008,59.3701172 L212.708008,59.1582031 C212.708008,58.4381474 212.840168,57.7978544 213.104492,57.2373047 C213.368816,56.676755 213.748207,56.241538 214.242676,55.9316406 C214.737144,55.6217432 215.321611,55.4667969 215.996094,55.4667969 C216.825525,55.4667969 217.514808,55.7151668 218.063965,56.2119141 C218.613121,56.7086613 218.905924,57.3535117 218.942383,58.1464844 L217.746094,58.1464844 C217.709635,57.6679664 217.528485,57.2749039 217.202637,56.9672852 C216.876789,56.6596664 216.474612,56.5058594 215.996094,56.5058594 C215.353512,56.5058594 214.855633,56.7371396 214.502441,57.199707 C214.14925,57.6622744 213.972656,58.3310503 213.972656,59.2060547 L213.972656,59.4453125 C213.972656,60.2975303 214.14811,60.9537737 214.499023,61.4140625 C214.849937,61.8743513 215.351234,62.1044922 216.00293,62.1044922 Z M224.930664,62.2685547 C224.438474,62.8473336 223.716151,63.1367188 222.763672,63.1367188 C221.975256,63.1367188 221.374839,62.9077171 220.962402,62.449707 C220.549965,61.9916969 220.341471,61.3138066 220.336914,60.4160156 L220.336914,55.6035156 L221.601562,55.6035156 L221.601562,60.3818359 C221.601562,61.5029353 222.057287,62.0634766 222.96875,62.0634766 C223.934901,62.0634766 224.577472,61.7034541 224.896484,60.9833984 L224.896484,55.6035156 L226.161133,55.6035156 L226.161133,63 L224.958008,63 L224.930664,62.2685547 Z M232.388672,61.0380859 C232.388672,60.6962874 232.25993,60.4308278 232.002441,60.2416992 C231.744953,60.0525707 231.296064,59.8896491 230.655762,59.7529297 C230.015459,59.6162103 229.507326,59.4521494 229.131348,59.2607422 C228.755369,59.069335 228.477377,58.8414727 228.297363,58.5771484 C228.117349,58.3128242 228.027344,57.9983742 228.027344,57.6337891 C228.027344,57.0276662 228.283689,56.5149761 228.796387,56.0957031 C229.309085,55.6764302 229.964189,55.4667969 230.761719,55.4667969 C231.600265,55.4667969 232.280434,55.6832661 232.802246,56.1162109 C233.324059,56.5491558 233.584961,57.1028612 233.584961,57.7773438 L232.313477,57.7773438 C232.313477,57.4309879 232.166505,57.1324882 231.872559,56.8818359 C231.578612,56.6311836 231.208336,56.5058594 230.761719,56.5058594 C230.30143,56.5058594 229.941408,56.6061188 229.681641,56.8066406 C229.421874,57.0071625 229.291992,57.2692041 229.291992,57.5927734 C229.291992,57.8981135 229.412759,58.1282544 229.654297,58.2832031 C229.895835,58.4381518 230.332191,58.5862623 230.963379,58.7275391 C231.594567,58.8688158 232.106118,59.0374339 232.498047,59.2333984 C232.889976,59.429363 233.1805,59.6652004 233.369629,59.940918 C233.558757,60.2166355 233.65332,60.5527324 233.65332,60.9492188 C233.65332,61.6100293 233.389,62.1398092 232.860352,62.5385742 C232.331703,62.9373392 231.645838,63.1367188 230.802734,63.1367188 C230.210283,63.1367188 229.6862,63.0319021 229.230469,62.8222656 C228.774737,62.6126292 228.418133,62.3198261 228.160645,61.9438477 C227.903156,61.5678692 227.774414,61.161135 227.774414,60.7236328 L229.039062,60.7236328 C229.061849,61.1474631 229.231606,61.48356 229.54834,61.7319336 C229.865073,61.9803072 230.283201,62.1044922 230.802734,62.1044922 C231.281252,62.1044922 231.6652,62.0076507 231.95459,61.8139648 C232.243979,61.620279 232.388672,61.3616553 232.388672,61.0380859 Z M237.016602,53.8125 L237.016602,55.6035156 L238.397461,55.6035156 L238.397461,56.5810547 L237.016602,56.5810547 L237.016602,61.1679688 C237.016602,61.4641942 237.078124,61.6863599 237.201172,61.8344727 C237.324219,61.9825854 237.533853,62.0566406 237.830078,62.0566406 C237.975912,62.0566406 238.176431,62.0292971 238.431641,61.9746094 L238.431641,63 C238.098957,63.0911463 237.775392,63.1367188 237.460938,63.1367188 C236.895831,63.1367188 236.469728,62.965822 236.182617,62.6240234 C235.895506,62.2822249 235.751953,61.7968781 235.751953,61.1679688 L235.751953,56.5810547 L234.405273,56.5810547 L234.405273,55.6035156 L235.751953,55.6035156 L235.751953,53.8125 L237.016602,53.8125 Z M239.402344,59.2333984 C239.402344,58.5087854 239.544758,57.8570992 239.82959,57.2783203 C240.114422,56.6995414 240.510902,56.2529313 241.019043,55.9384766 C241.527184,55.6240219 242.107093,55.4667969 242.758789,55.4667969 C243.765956,55.4667969 244.580563,55.8154262 245.202637,56.5126953 C245.82471,57.2099644 246.135742,58.137364 246.135742,59.2949219 L246.135742,59.3837891 C246.135742,60.1038447 245.997885,60.7498344 245.722168,61.3217773 C245.44645,61.8937203 245.052249,62.3391911 244.539551,62.6582031 C244.026853,62.9772151 243.437829,63.1367188 242.772461,63.1367188 C241.769852,63.1367188 240.957523,62.7880894 240.335449,62.0908203 C239.713376,61.3935512 239.402344,60.4707089 239.402344,59.3222656 L239.402344,59.2333984 Z M240.673828,59.3837891 C240.673828,60.2041057 240.864093,60.8626277 241.244629,61.359375 C241.625165,61.8561223 242.134437,62.1044922 242.772461,62.1044922 C243.415042,62.1044922 243.925454,61.8527043 244.303711,61.3491211 C244.681968,60.8455378 244.871094,60.140304 244.871094,59.2333984 C244.871094,58.4221965 244.67855,57.7648137 244.293457,57.2612305 C243.908364,56.7576472 243.396813,56.5058594 242.758789,56.5058594 C242.134437,56.5058594 241.630861,56.7542293 241.248047,57.2509766 C240.865232,57.7477238 240.673828,58.4586542 240.673828,59.3837891 Z M248.911133,55.6035156 L248.945312,56.4238281 C249.487633,55.7858041 250.219071,55.4667969 251.139648,55.4667969 C252.174159,55.4667969 252.878253,55.8632773 253.251953,56.65625 C253.498048,56.3007795 253.818195,56.013673 254.212402,55.7949219 C254.60661,55.5761708 255.072588,55.4667969 255.610352,55.4667969 C257.232756,55.4667969 258.057617,56.3258378 258.084961,58.0439453 L258.084961,63 L256.820312,63 L256.820312,58.1191406 C256.820312,57.5904921 256.699545,57.195151 256.458008,56.9331055 C256.21647,56.6710599 255.810875,56.5400391 255.241211,56.5400391 C254.771808,56.5400391 254.382163,56.6801744 254.072266,56.9604492 C253.762368,57.2407241 253.582357,57.6178362 253.532227,58.0917969 L253.532227,63 L252.260742,63 L252.260742,58.1533203 C252.260742,57.0777941 251.73438,56.5400391 250.681641,56.5400391 C249.852209,56.5400391 249.284832,56.8932256 248.979492,57.5996094 L248.979492,63 L247.714844,63 L247.714844,55.6035156 L248.911133,55.6035156 Z M260.019531,62.3369141 C260.019531,62.118163 260.084472,61.9358731 260.214355,61.7900391 C260.344239,61.644205 260.539061,61.5712891 260.798828,61.5712891 C261.058595,61.5712891 261.255696,61.644205 261.390137,61.7900391 C261.524577,61.9358731 261.591797,62.118163 261.591797,62.3369141 C261.591797,62.5465505 261.524577,62.7220045 261.390137,62.8632812 C261.255696,63.004558 261.058595,63.0751953 260.798828,63.0751953 C260.539061,63.0751953 260.344239,63.004558 260.214355,62.8632812 C260.084472,62.7220045 260.019531,62.5465505 260.019531,62.3369141 Z" id="iOS-alert-now-easy-a" fill-opacity="0.54" fill="#000000"></path>
            </g>
        </g>
    </g>
</svg>